%TF.GenerationSoftware,KiCad,Pcbnew,5.1.5+dfsg1-2build2*%
%TF.CreationDate,2021-07-18T22:40:15+02:00*%
%TF.ProjectId,wb2s,77623273-2e6b-4696-9361-645f70636258,rev?*%
%TF.SameCoordinates,Original*%
%TF.FileFunction,Legend,Top*%
%TF.FilePolarity,Positive*%
%FSLAX46Y46*%
G04 Gerber Fmt 4.6, Leading zero omitted, Abs format (unit mm)*
G04 Created by KiCad (PCBNEW 5.1.5+dfsg1-2build2) date 2021-07-18 22:40:15*
%MOMM*%
%LPD*%
G04 APERTURE LIST*
%ADD10C,0.125000*%
%ADD11C,0.203200*%
%ADD12C,0.120000*%
%ADD13C,0.150000*%
G04 APERTURE END LIST*
D10*
X88956428Y-111065571D02*
X88956428Y-112137000D01*
X88885000Y-112351285D01*
X88742142Y-112494142D01*
X88527857Y-112565571D01*
X88385000Y-112565571D01*
X90385000Y-112565571D02*
X89670714Y-112565571D01*
X89670714Y-111065571D01*
X91742142Y-112422714D02*
X91670714Y-112494142D01*
X91456428Y-112565571D01*
X91313571Y-112565571D01*
X91099285Y-112494142D01*
X90956428Y-112351285D01*
X90885000Y-112208428D01*
X90813571Y-111922714D01*
X90813571Y-111708428D01*
X90885000Y-111422714D01*
X90956428Y-111279857D01*
X91099285Y-111137000D01*
X91313571Y-111065571D01*
X91456428Y-111065571D01*
X91670714Y-111137000D01*
X91742142Y-111208428D01*
X92813571Y-111065571D02*
X92813571Y-112137000D01*
X92742142Y-112351285D01*
X92599285Y-112494142D01*
X92385000Y-112565571D01*
X92242142Y-112565571D01*
X94242142Y-112565571D02*
X93527857Y-112565571D01*
X93527857Y-111065571D01*
X95599285Y-112422714D02*
X95527857Y-112494142D01*
X95313571Y-112565571D01*
X95170714Y-112565571D01*
X94956428Y-112494142D01*
X94813571Y-112351285D01*
X94742142Y-112208428D01*
X94670714Y-111922714D01*
X94670714Y-111708428D01*
X94742142Y-111422714D01*
X94813571Y-111279857D01*
X94956428Y-111137000D01*
X95170714Y-111065571D01*
X95313571Y-111065571D01*
X95527857Y-111137000D01*
X95599285Y-111208428D01*
X96670714Y-111065571D02*
X96670714Y-112137000D01*
X96599285Y-112351285D01*
X96456428Y-112494142D01*
X96242142Y-112565571D01*
X96099285Y-112565571D01*
X98099285Y-112565571D02*
X97385000Y-112565571D01*
X97385000Y-111065571D01*
X99456428Y-112422714D02*
X99385000Y-112494142D01*
X99170714Y-112565571D01*
X99027857Y-112565571D01*
X98813571Y-112494142D01*
X98670714Y-112351285D01*
X98599285Y-112208428D01*
X98527857Y-111922714D01*
X98527857Y-111708428D01*
X98599285Y-111422714D01*
X98670714Y-111279857D01*
X98813571Y-111137000D01*
X99027857Y-111065571D01*
X99170714Y-111065571D01*
X99385000Y-111137000D01*
X99456428Y-111208428D01*
X100527857Y-111065571D02*
X100527857Y-112137000D01*
X100456428Y-112351285D01*
X100313571Y-112494142D01*
X100099285Y-112565571D01*
X99956428Y-112565571D01*
X101956428Y-112565571D02*
X101242142Y-112565571D01*
X101242142Y-111065571D01*
X103313571Y-112422714D02*
X103242142Y-112494142D01*
X103027857Y-112565571D01*
X102885000Y-112565571D01*
X102670714Y-112494142D01*
X102527857Y-112351285D01*
X102456428Y-112208428D01*
X102385000Y-111922714D01*
X102385000Y-111708428D01*
X102456428Y-111422714D01*
X102527857Y-111279857D01*
X102670714Y-111137000D01*
X102885000Y-111065571D01*
X103027857Y-111065571D01*
X103242142Y-111137000D01*
X103313571Y-111208428D01*
D11*
%TO.C,SW1*%
X107086400Y-114477800D02*
G75*
G02X106837480Y-114228880I0J248920D01*
G01*
X106834940Y-108732320D02*
G75*
G02X107086400Y-108480860I251460J0D01*
G01*
X110083600Y-108483400D02*
G75*
G02X110332520Y-108732320I0J-248920D01*
G01*
X110335060Y-114228880D02*
G75*
G02X110083600Y-114480340I-251460J0D01*
G01*
X107835700Y-109982000D02*
X109334300Y-109982000D01*
X107835700Y-112979200D02*
X109334300Y-112979200D01*
X107835700Y-109982000D02*
X107835700Y-112979200D01*
X109334300Y-112979200D02*
X109334300Y-109982000D01*
X107086400Y-108480860D02*
X107485180Y-108480860D01*
X109684820Y-108480860D02*
X110083600Y-108480860D01*
X109684820Y-114480340D02*
X110083600Y-114480340D01*
X107086400Y-114480340D02*
X107485180Y-114480340D01*
X106837480Y-108732320D02*
X106837480Y-114228880D01*
X110332520Y-114228880D02*
X110332520Y-108732320D01*
%TO.C,SW2*%
X103408480Y-114955320D02*
X103408480Y-120451880D01*
X106903520Y-120451880D02*
X106903520Y-114955320D01*
X106654600Y-114703860D02*
X106255820Y-114703860D01*
X104056180Y-114703860D02*
X103657400Y-114703860D01*
X104056180Y-120703340D02*
X103657400Y-120703340D01*
X106654600Y-120703340D02*
X106255820Y-120703340D01*
X104406700Y-116205000D02*
X104406700Y-119202200D01*
X105905300Y-119202200D02*
X105905300Y-116205000D01*
X105905300Y-116205000D02*
X104406700Y-116205000D01*
X105905300Y-119202200D02*
X104406700Y-119202200D01*
X103405940Y-114955320D02*
G75*
G02X103657400Y-114703860I251460J0D01*
G01*
X103657400Y-120700800D02*
G75*
G02X103408480Y-120451880I0J248920D01*
G01*
X106906060Y-120451880D02*
G75*
G02X106654600Y-120703340I-251460J0D01*
G01*
X106654600Y-114706400D02*
G75*
G02X106903520Y-114955320I0J-248920D01*
G01*
D12*
%TO.C,U1*%
X103052000Y-106815000D02*
X103052000Y-106205000D01*
X103052000Y-106815000D02*
X110672000Y-106815000D01*
X86432000Y-106815000D02*
X87052000Y-106815000D01*
X86432000Y-108935000D02*
X86432000Y-106815000D01*
X86432000Y-123055000D02*
X86432000Y-120935000D01*
X87052000Y-123055000D02*
X86432000Y-123055000D01*
X110672000Y-123055000D02*
X103052000Y-123055000D01*
X110672000Y-106815000D02*
X110672000Y-123055000D01*
%TO.C,J2*%
X93407000Y-123895000D02*
X94807000Y-123895000D01*
X94807000Y-123895000D02*
X94807000Y-126295000D01*
X94807000Y-126295000D02*
X93407000Y-126295000D01*
X93407000Y-126295000D02*
X93407000Y-123895000D01*
%TO.C,J3*%
X95439000Y-123895000D02*
X96839000Y-123895000D01*
X96839000Y-123895000D02*
X96839000Y-126295000D01*
X96839000Y-126295000D02*
X95439000Y-126295000D01*
X95439000Y-126295000D02*
X95439000Y-123895000D01*
%TO.C,J4*%
X97471000Y-126295000D02*
X97471000Y-123895000D01*
X98871000Y-126295000D02*
X97471000Y-126295000D01*
X98871000Y-123895000D02*
X98871000Y-126295000D01*
X97471000Y-123895000D02*
X98871000Y-123895000D01*
%TO.C,J8*%
X89343000Y-126295000D02*
X89343000Y-123895000D01*
X90743000Y-126295000D02*
X89343000Y-126295000D01*
X90743000Y-123895000D02*
X90743000Y-126295000D01*
X89343000Y-123895000D02*
X90743000Y-123895000D01*
%TO.C,J9*%
X91375000Y-126295000D02*
X91375000Y-123895000D01*
X92775000Y-126295000D02*
X91375000Y-126295000D01*
X92775000Y-123895000D02*
X92775000Y-126295000D01*
X91375000Y-123895000D02*
X92775000Y-123895000D01*
%TO.C,U1*%
D13*
X92924380Y-118744904D02*
X93733904Y-118744904D01*
X93829142Y-118697285D01*
X93876761Y-118649666D01*
X93924380Y-118554428D01*
X93924380Y-118363952D01*
X93876761Y-118268714D01*
X93829142Y-118221095D01*
X93733904Y-118173476D01*
X92924380Y-118173476D01*
X93924380Y-117173476D02*
X93924380Y-117744904D01*
X93924380Y-117459190D02*
X92924380Y-117459190D01*
X93067238Y-117554428D01*
X93162476Y-117649666D01*
X93210095Y-117744904D01*
%TO.C,J2*%
D10*
X93907000Y-126218190D02*
X93907000Y-126575333D01*
X93878428Y-126646761D01*
X93821285Y-126694380D01*
X93735571Y-126718190D01*
X93678428Y-126718190D01*
X94164142Y-126265809D02*
X94192714Y-126242000D01*
X94249857Y-126218190D01*
X94392714Y-126218190D01*
X94449857Y-126242000D01*
X94478428Y-126265809D01*
X94507000Y-126313428D01*
X94507000Y-126361047D01*
X94478428Y-126432476D01*
X94135571Y-126718190D01*
X94507000Y-126718190D01*
%TO.C,J3*%
X95939000Y-126218190D02*
X95939000Y-126575333D01*
X95910428Y-126646761D01*
X95853285Y-126694380D01*
X95767571Y-126718190D01*
X95710428Y-126718190D01*
X96167571Y-126218190D02*
X96539000Y-126218190D01*
X96339000Y-126408666D01*
X96424714Y-126408666D01*
X96481857Y-126432476D01*
X96510428Y-126456285D01*
X96539000Y-126503904D01*
X96539000Y-126622952D01*
X96510428Y-126670571D01*
X96481857Y-126694380D01*
X96424714Y-126718190D01*
X96253285Y-126718190D01*
X96196142Y-126694380D01*
X96167571Y-126670571D01*
%TO.C,J4*%
X97971000Y-126218190D02*
X97971000Y-126575333D01*
X97942428Y-126646761D01*
X97885285Y-126694380D01*
X97799571Y-126718190D01*
X97742428Y-126718190D01*
X98513857Y-126384857D02*
X98513857Y-126718190D01*
X98371000Y-126194380D02*
X98228142Y-126551523D01*
X98599571Y-126551523D01*
%TO.C,J8*%
X89843000Y-126218190D02*
X89843000Y-126575333D01*
X89814428Y-126646761D01*
X89757285Y-126694380D01*
X89671571Y-126718190D01*
X89614428Y-126718190D01*
X90214428Y-126432476D02*
X90157285Y-126408666D01*
X90128714Y-126384857D01*
X90100142Y-126337238D01*
X90100142Y-126313428D01*
X90128714Y-126265809D01*
X90157285Y-126242000D01*
X90214428Y-126218190D01*
X90328714Y-126218190D01*
X90385857Y-126242000D01*
X90414428Y-126265809D01*
X90443000Y-126313428D01*
X90443000Y-126337238D01*
X90414428Y-126384857D01*
X90385857Y-126408666D01*
X90328714Y-126432476D01*
X90214428Y-126432476D01*
X90157285Y-126456285D01*
X90128714Y-126480095D01*
X90100142Y-126527714D01*
X90100142Y-126622952D01*
X90128714Y-126670571D01*
X90157285Y-126694380D01*
X90214428Y-126718190D01*
X90328714Y-126718190D01*
X90385857Y-126694380D01*
X90414428Y-126670571D01*
X90443000Y-126622952D01*
X90443000Y-126527714D01*
X90414428Y-126480095D01*
X90385857Y-126456285D01*
X90328714Y-126432476D01*
%TO.C,J9*%
X91875000Y-126218190D02*
X91875000Y-126575333D01*
X91846428Y-126646761D01*
X91789285Y-126694380D01*
X91703571Y-126718190D01*
X91646428Y-126718190D01*
X92189285Y-126718190D02*
X92303571Y-126718190D01*
X92360714Y-126694380D01*
X92389285Y-126670571D01*
X92446428Y-126599142D01*
X92475000Y-126503904D01*
X92475000Y-126313428D01*
X92446428Y-126265809D01*
X92417857Y-126242000D01*
X92360714Y-126218190D01*
X92246428Y-126218190D01*
X92189285Y-126242000D01*
X92160714Y-126265809D01*
X92132142Y-126313428D01*
X92132142Y-126432476D01*
X92160714Y-126480095D01*
X92189285Y-126503904D01*
X92246428Y-126527714D01*
X92360714Y-126527714D01*
X92417857Y-126503904D01*
X92446428Y-126480095D01*
X92475000Y-126432476D01*
%TD*%
M02*
